<?xml version="1.0" standalone="no"?>
<!DOCTYPE svg PUBLIC "-//W3C//DTD SVG 20010904//EN"
 "http://www.w3.org/TR/2001/REC-SVG-20010904/DTD/svg10.dtd">
<svg version="1.0" xmlns="http://www.w3.org/2000/svg"
 width="1418.000000pt" height="1418.000000pt" viewBox="0 0 1418.000000 1418.000000"
 preserveAspectRatio="xMidYMid meet">
<metadata>
Created by potrace 1.11, written by Peter Selinger 2001-2013
</metadata>
<g transform="translate(0.000000,1418.000000) scale(0.100000,-0.100000)"
fill="#000000" stroke="none">
<path d="M221 11080 c-60 -22 -72 -30 -122 -81 -78 -81 -89 -155 -54 -379 2
-14 11 -72 19 -130 9 -58 18 -116 21 -130 3 -14 8 -41 11 -60 3 -19 7 -42 9
-50 2 -8 7 -30 10 -48 3 -18 12 -65 21 -105 8 -39 17 -80 19 -90 2 -10 6 -26
9 -35 3 -9 7 -28 10 -42 32 -169 178 -637 279 -895 148 -379 373 -837 534
-1088 23 -37 43 -70 43 -72 0 -8 190 -292 264 -395 486 -681 1100 -1277 1804
-1754 134 -91 297 -194 397 -251 468 -266 905 -463 1340 -604 72 -24 137 -45
145 -48 8 -3 20 -7 26 -8 6 -2 48 -14 95 -28 169 -51 541 -139 679 -161 19 -3
45 -8 56 -10 37 -8 98 -18 129 -21 17 -2 44 -6 60 -9 27 -5 121 -18 225 -31
19 -3 64 -7 100 -11 36 -3 83 -7 105 -10 44 -4 177 -13 300 -19 87 -5 593 -6
665 -1 25 2 98 6 163 10 65 4 128 9 140 11 12 2 54 6 92 10 39 4 84 8 100 10
17 2 53 7 80 10 82 10 319 47 385 60 14 3 52 10 85 16 414 74 1085 286 1490
469 196 89 584 287 672 343 24 15 45 27 47 27 10 0 263 160 405 257 170 116
257 179 428 316 l113 89 -47 61 c-27 34 -88 109 -137 167 -86 100 -111 127
-259 282 l-64 67 -104 -82 c-111 -88 -319 -240 -409 -298 -166 -108 -239 -153
-375 -231 -526 -300 -1103 -528 -1681 -663 -11 -2 -37 -9 -58 -14 l-40 -10 60
54 c160 146 289 294 389 445 146 219 259 488 309 736 23 110 23 112 31 184 4
36 9 74 11 85 4 17 5 280 3 340 -2 27 -27 224 -34 255 -3 14 -7 34 -9 46 -59
294 -211 620 -408 876 -75 96 -239 267 -318 331 -27 21 -37 34 -25 31 11 -2
74 -18 140 -35 66 -16 127 -32 135 -34 66 -14 410 -119 445 -135 11 -5 49 -19
85 -31 36 -12 70 -26 75 -29 6 -4 28 -13 50 -20 78 -25 302 -123 480 -210 221
-109 301 -152 480 -260 805 -484 1494 -1141 2013 -1920 92 -137 144 -222 279
-455 54 -93 235 -466 291 -600 142 -341 260 -709 332 -1027 16 -75 30 -140 30
-145 0 -10 -6447 -10 -6605 1 -201 13 -330 24 -525 45 -103 12 -140 17 -190
26 -14 2 -45 7 -70 10 -63 9 -187 30 -305 54 -55 11 -111 22 -125 24 -98 19
-389 92 -530 134 -47 14 -112 33 -146 43 -541 159 -1189 453 -1748 793 -190
116 -531 350 -681 469 -131 105 -210 168 -250 203 -27 23 -68 58 -90 76 -22
19 -45 39 -51 44 -6 6 -46 42 -89 80 -157 140 -451 439 -595 605 -36 41 -73
84 -84 95 -52 56 -270 334 -366 465 -38 52 -73 100 -78 105 -46 57 -362 556
-396 625 -4 8 -12 24 -19 35 -25 42 -107 195 -162 303 -43 84 -63 114 -80 118
-34 8 -65 -4 -74 -29 -4 -12 -7 -1111 -6 -2442 l1 -2420 25 -55 c29 -61 47
-83 100 -123 83 -63 -43 -59 1823 -59 l1700 0 18 22 c41 50 20 75 -107 129
-277 118 -532 240 -775 371 -159 86 -195 107 -315 178 l-110 66 -795 0 -795 1
-2 1003 c-1 551 1 1002 4 1002 2 0 107 -103 231 -228 255 -256 309 -307 507
-478 529 -455 1095 -836 1700 -1143 203 -103 289 -144 500 -236 304 -133 676
-264 1050 -371 135 -39 459 -119 519 -128 21 -4 41 -8 45 -10 3 -3 26 -7 51
-11 25 -4 47 -8 50 -10 3 -2 24 -6 46 -9 22 -4 51 -9 64 -11 20 -4 178 -31
300 -50 71 -11 344 -44 420 -50 30 -2 80 -7 110 -10 56 -5 161 -12 330 -21 52
-3 1688 -5 3635 -5 l3540 -1 56 21 c74 28 132 79 164 145 28 58 34 114 21 211
-5 33 -10 74 -11 90 -3 31 -9 70 -25 165 -5 30 -11 72 -14 92 -28 188 -123
591 -202 851 -155 510 -361 985 -637 1467 -33 58 -73 124 -89 147 -15 23 -28
44 -28 48 0 3 -9 18 -19 33 -10 15 -56 83 -102 152 -73 111 -266 381 -310 435
-275 335 -324 390 -574 640 -292 293 -477 455 -775 677 -168 125 -403 288
-416 288 -4 0 -15 7 -25 16 -37 33 -356 217 -564 325 -551 286 -1146 498
-1775 633 -91 19 -194 40 -230 45 -36 6 -74 13 -85 15 -11 2 -41 6 -66 10 -25
4 -57 9 -70 11 -46 8 -258 35 -321 40 -35 3 -83 8 -108 10 -311 27 -935 27
-1200 1 -19 -2 -69 -7 -110 -10 -41 -4 -88 -9 -105 -11 -82 -11 -132 -17 -155
-20 -14 -1 -47 -6 -75 -11 -27 -4 -54 -8 -60 -9 -5 0 -32 -5 -60 -9 -27 -4
-60 -9 -73 -11 -12 -2 -30 -6 -40 -9 -9 -3 -34 -7 -54 -10 -165 -25 -559 -124
-838 -212 -813 -257 -1600 -680 -2283 -1227 -48 -39 -87 -72 -87 -74 0 -5 112
-146 122 -153 3 -3 21 -23 38 -45 49 -62 146 -169 250 -278 l95 -99 90 72
c223 179 554 403 790 535 28 15 91 50 140 78 80 44 409 207 420 207 2 0 32 13
67 29 269 123 761 285 1107 365 l63 15 -43 -37 c-175 -145 -374 -384 -489
-587 -107 -188 -205 -448 -236 -625 -3 -14 -7 -32 -9 -40 -16 -53 -35 -256
-37 -385 -2 -85 10 -294 17 -305 2 -3 6 -30 10 -60 9 -76 48 -240 80 -335 115
-344 305 -643 574 -899 71 -68 71 -68 106 -94 l30 -24 -30 7 c-548 127 -1043
305 -1505 542 -475 245 -869 513 -1304 887 -193 167 -514 497 -676 696 -25 30
-53 63 -63 75 -128 144 -451 614 -582 850 -118 211 -231 437 -305 610 -23 55
-48 114 -55 130 -8 17 -21 50 -30 75 -10 25 -23 59 -30 75 -27 62 -124 356
-166 500 -45 159 -118 457 -113 464 5 6 6410 3 6539 -3 245 -12 558 -40 695
-61 14 -3 45 -7 70 -10 264 -32 724 -131 1054 -226 203 -59 549 -176 661 -224
17 -7 77 -32 135 -55 305 -123 660 -299 955 -474 66 -39 125 -73 130 -76 76
-39 534 -353 665 -457 362 -287 603 -502 852 -760 40 -42 87 -90 103 -107 25
-26 169 -189 284 -321 28 -33 183 -229 247 -312 74 -98 131 -178 225 -318 97
-143 127 -190 211 -330 27 -44 53 -87 58 -95 6 -8 13 -22 17 -30 4 -8 16 -31
28 -50 28 -45 91 -163 167 -310 32 -63 68 -122 78 -132 25 -20 70 -11 85 18 7
13 10 845 9 2440 l0 2419 -29 63 c-34 75 -94 132 -169 161 -50 19 -84 20
-1748 20 -1687 1 -1698 1 -1718 -19 -40 -40 -16 -85 60 -115 249 -95 786 -362
1115 -555 22 -13 49 -28 60 -34 11 -6 32 -19 46 -29 25 -17 75 -18 813 -16
433 1 790 -2 794 -6 4 -3 7 -456 7 -1005 l0 -999 -28 27 c-16 15 -61 60 -101
101 -218 225 -413 412 -586 560 -41 36 -79 70 -85 76 -5 5 -30 26 -55 45 -25
19 -47 37 -50 41 -3 4 -27 24 -55 44 -27 21 -52 41 -55 45 -10 14 -329 250
-455 337 -136 94 -389 257 -488 314 -530 306 -947 503 -1462 689 -455 164
-946 294 -1415 375 -99 17 -266 42 -325 49 -27 4 -84 11 -125 16 -41 5 -100
12 -130 15 -30 3 -71 7 -90 10 -19 2 -81 7 -138 10 -57 4 -122 9 -145 13 -23
3 -1678 7 -3677 9 -3578 3 -3636 2 -3689 -17z m6859 -2572 c3 -3 4 -311 4
-685 -1 -373 0 -685 2 -694 4 -14 76 -15 692 -14 378 0 692 -1 698 -3 11 -3
11 -36 -1 -152 -10 -100 -40 -233 -76 -330 -28 -76 -117 -251 -140 -276 -10
-11 -19 -24 -19 -29 0 -29 -190 -233 -290 -311 -164 -128 -399 -240 -565 -269
-189 -32 -351 -39 -490 -21 -72 10 -235 53 -313 82 -448 168 -794 588 -877
1064 -18 99 -24 315 -13 410 57 461 336 862 755 1081 142 75 350 134 508 145
50 4 92 8 94 10 5 5 25 0 31 -8z"/>
</g>
</svg>
